<svg version="1.0" xmlns="http://www.w3.org/2000/svg" width="684" height="662.667" viewBox="0 0 513 497"><path d="M286.4 4.2c-1.1 1.3-6.5 8.6-11.9 16.3-25.9 36.5-49.3 61.5-74 78.7-6.7 4.7-28.1 16.8-29.6 16.8-.3 0-.3-1.7-.1-3.8.2-2.4-.5-5.2-2-8.2-4.4-8.6-15.2-11.4-23-5.9-14.7 10.4-106.4 80.5-110.4 84.4-2.8 2.7-7.7 7-10.8 9.5-22.1 16.9-30 47.9-17.8 69.2 4.2 7.5 36 45.6 40.6 48.7 6.5 4.5 11.6 6.7 19.6 8.6 9.1 2.2 11.6 3.4 15.6 7.7 5 5.2 6.4 8.9 6.4 16.6 0 15.1 4.9 27.9 14.2 36.8 7 6.8 113.2 89.8 122.6 95.9 14.2 9.1 31.8 16 48.8 18.9 17.9 3.2 162.5 1.6 181.9-1.9 20.8-3.8 34.6-10.2 43.7-20.4 6.6-7.3 9-14.2 8.9-25.6 0-5.4.6-10.7 1.5-13.4 5.5-16.4.1-36.5-13.5-50.2-12.6-12.6-23.6-16.9-60.9-23.9-14.7-2.8-28.5-5.5-30.7-6.1-12-3-18.4-5.3-19-6.8-16.7-42.8-32.6-85.5-32.1-86.7.3-.8 10.5-15.3 22.6-32.3 26-36.4 26-36.3 14.7-41.4-2.7-1.2-3.6-2.1-3-3 .4-.8 17-19.3 36.8-41.1 19.8-21.9 36.5-41 37.1-42.4 2.3-5.4-2.8-10.8-8-8.4-1.3.6-19.9 20.4-41.2 44l-38.8 43-6.1-2.8c-18.7-8.4-37.4-8-56.3 1.1-11.8 5.7-19.3 13.5-31.3 32.4-10.9 17.2-9.8 16.5-23.8 14.1-41.1-7.1-73.9-36.6-83.7-75.4-4-15.9-4.4-15 9.7-22.1 30.8-15.5 55.5-36.8 83.4-71.6 14.4-18.1 30.1-40.2 31-43.8 1.7-6.5-6.6-10.6-11.1-5.5zM157.2 124.7c.6 17.9 2.1 26 7.8 40 5.7 14.2 13.1 25.2 25 37.3 14.9 15.1 31.4 25.1 50.4 30.5 11.6 3.3 15.7 3.9 51 7.5 24.5 2.4 30.7 3.4 34.4 5.1 3.1 1.5 4 2.4 3.1 2.9-2.7 1.5-24.7 3-42.7 3-41.6 0-71.9-8.7-95.4-27.4-10.4-8.3-25.1-27.4-32.5-42.1-10-19.8-13.7-43.4-9.8-61.7 1.8-8.6 3-10.8 5.9-10.8 2.4 0 2.4 0 2.8 15.7zm-23.6 11.6c.1 24.4 6.8 44.3 23.2 68.8 13 19.3 26.5 31.8 45.3 41.7 9.9 5.3 26.2 11.2 36.6 13.2l6.3 1.3 2.9 7.6c6.3 16.5 11.9 36.8 15.2 55.8 1.9 10.4 2.3 16.6 2.4 33.3 0 21-.8 28.5-4.7 42.9-2.3 8.4-7.7 21.8-11.1 27.3l-2.2 3.6-8-5.4c-4.4-2.9-11.1-8-15-11.2-5.4-4.6-57.6-54.7-92.4-88.7l-3.5-3.4 4.2-4.4c10.4-11.3 18.1-24.2 22.2-37.2 3.1-9.9 3.9-28.2 1.6-39.5-5.5-27.1-22.1-55.2-48.3-82.1l-9.3-9.6 17.2-13.1c9.5-7.3 17.3-13.2 17.3-13.2s0 5.5.1 12.3zM99 169.7c15.2 15.9 26.6 31.5 34.4 47.1 8.1 16.1 10.9 27 10.9 42.2.1 9.8-.3 12.7-2.6 19.5-1.5 4.4-4.3 10.9-6.4 14.4-4 6.7-14.8 20.1-16.2 20.1-.5 0-18.1-16.8-39.2-37.3-41.6-40.4-42.8-41.9-45-54.3-.9-5-.8-7.4.5-12.5 2.9-11.3 6.7-15.5 30.5-33.6 11.8-9 21.8-16.3 22.2-16.3.4 0 5.3 4.8 10.9 10.7zm259.7 16.2c8.5 3.1 23.3 9.9 23.3 10.6 0 .5-32.6 46.4-34.1 47.9-.4.5-3.3-1.4-6.6-4.4-9.2-8.4-14-10-38.8-12.5-8.8-1-16.1-1.8-16.2-1.9-.3-.3 11.6-18.7 15.5-23.9 13-17.3 35.9-23.6 56.9-15.8zM26.4 238.5c3 6 6.2 9.7 22.8 26.1C71.3 286.5 195.3 406.5 208 418.4c24.3 22.7 50.6 37 83 45 20.1 5 21.5 5.1 103 5.1 85.3 0 81.3.3 93.4-7 3.2-1.9 6.1-3.4 6.3-3.2.2.2-1.5 2.4-3.6 4.9-4.6 5.2-14.5 10.7-24.1 13.3-15.8 4.3-20.4 4.6-92 5.6-38.2.6-74.9.8-81.5.6-19.8-.8-40-6.8-56.7-16.9-9.4-5.7-117.8-90.4-124-96.8-6.2-6.6-8.8-13.6-8.8-24 0-11.3-2.9-19.7-9.3-26.7s-11.4-9.8-21.8-12.4c-14.7-3.6-16.3-5-38.8-32.4-16.9-20.7-17.6-22-17.6-35.5 0-9 .4-11.3 2.5-16l2.4-5.5 1.3 7.5c.7 4.4 2.7 10.4 4.7 14.5zm314.1 25.7l.7 2.8h-12.8c-14.4 0-16.4.8-16.4 6.6 0 5.7 2.2 6.4 19.6 6.4h15.1l2 5.2 2 5.3-10.1.5c-5.5.3-10.7.9-11.4 1.4-2.1 1.3-3 4.9-2 7.8 1.3 3.7 5.3 4.8 18 4.8h10.9l1.9 4.6c1.1 2.5 2 4.8 2 5 0 .2-4 .4-8.9.4-10.3 0-14.4 1.2-15.9 4.5-1.4 3-.1 6.9 2.7 8.4 1.1.6 7.7 1.1 14.8 1.1h12.9l1.7 4.7c.9 2.7 1.7 5.1 1.7 5.5 0 .5-4.7.8-10.3.8-9.1 0-10.6.3-12.2 2-.9 1-1.7 3.1-1.7 4.5s.8 3.5 1.7 4.5c1.6 1.8 3.1 2 13.7 2 6.5 0 11.8.4 11.8.9s-.7 2.8-1.5 5.1c-3.4 9.7-.9 19.7 7 27.6 9.4 9.4 19.5 10.6 37.5 4.4 10.4-3.6 17.9-7.4 25.3-13 4.7-3.6 4.9-3.6 10.3-2.7 3 .6 5.4 1.4 5.4 1.7 0 .4-1.4 1.3-3.1 2.1-1.8.7-5.3 2.9-7.9 5-6.5 5.1-10 12.4-10.9 22.6-.7 9.1-3 13.8-8.1 16.7-3 1.8-6 2.1-22.5 2.7-20.9.8-25.3 1.7-37 7.7-5.2 2.6-9.4 6-16.2 12.9l-9.3 9.4-15-1c-22.4-1.6-42.5-6.3-59.4-14l-6.5-3 4.9-10.3c8.5-18.1 12.4-33.6 14.1-56.5 2-28.1-3.3-63-14.6-96.2-1.9-5.8-3.5-10.5-3.5-10.5 0-.1 12-.2 26.7-.2 21.4-.1 29.2-.5 38.8-2.1 6.6-1.1 12.3-1.7 12.7-1.4.4.3 1 1.8 1.3 3.3zm49 98.4c2.8.8 11.9 3 20.3 4.9 8.5 1.8 15.6 3.5 15.8 3.8.9.8-13.4 6.7-21.1 8.7-9.8 2.5-14 1.7-18.4-3.8-2.4-2.8-3.1-4.6-3.1-7.8 0-3.5.7-7.4 1.4-7.4 0 0 2.4.7 5.1 1.6zm88.8 22.5c17.3 9 25.7 32.7 17.3 48.9-6 11.6-17.1 19.4-30.2 21.1-3.8.4-29.2.8-56.3.9h-49.5l3.4-3.5c4.1-4.2 14.7-9.9 21.5-11.4 2.8-.6 13.3-1.5 23.5-1.9 17.8-.8 18.7-.9 23.9-3.7 5.4-3 10.7-8.6 13-14 .7-1.7 1.9-7.1 2.6-12.2.9-6.4 2-10.1 3.4-12 2-2.6 20.9-13.1 23.9-13.2.7-.1 2.3.4 3.5 1z" fill="#c70101"/></svg>