<svg xmlns="http://www.w3.org/2000/svg" viewBox="0 0 1000 1000"><g fill="#fff"><path d="M110.3 15.02c-2.58 2.79-4.73 7.52-4.73 10.53s15.47 42.76 34.38 88.54c18.91 45.77 34.38 83.59 34.38 84.02 0 .64-25.14 1.07-55.87 1.07H62.38l-5.16 5.37c-6.45 6.23-6.88 15.9-1.29 22.78l4.08 5.16 64.9 1.07 64.9 1.07 102.93 248.2c56.52 136.46 102.93 248.63 102.93 249.28s-6.02 5.59-13.32 10.75c-33.52 24.5-55.44 67.69-55.44 109.6 0 75 62.53 137.53 137.53 137.53 78.01 0 142.48-67.91 136.46-143.98-.64-10.1-1.5-21.06-1.72-24.28l-.43-6.23 160.1-66.4c103.15-42.55 161.39-67.9 163.97-70.91 1.93-2.58 3.65-6.88 3.65-9.89 0-5.8-10.75-17.84-15.9-17.84-1.93 0-76.07 30.09-165.04 66.83-152.79 63.39-161.6 66.62-164.4 62.96-32.45-45.77-75-68.12-123.13-64.25-10.1.64-21.06 1.5-24.28 1.72l-6.23.43-144.41-349.2C203.56 176.84 136.52 17.6 133.94 14.81c-6.23-6.45-17.41-6.45-23.64.21zm378.86 737.52c55.01 14.4 89.18 70.7 75.21 124.21-9.67 37.18-38.25 65.97-75.21 75.64-53.94 13.97-110.24-20.2-124.64-75.21-19.13-73.71 50.93-143.76 124.64-124.64z"/><path d="M447.26 822.81c-10.53 7.31-15.47 15.26-16.55 26.86-2.15 24.93 22.14 42.98 45.77 33.95 14.18-5.37 21.27-15.69 21.27-31.37 0-9.24-1.07-13.97-4.51-18.48-7.52-10.31-17.62-15.69-28.8-15.69-6.87 0-12.24 1.51-17.18 4.73zm-34.39-637.8c-60.81 25.36-113.25 47.92-116.47 50.72-4.08 3.01-6.02 6.66-6.02 10.74 0 9.46 91.76 229.94 98.21 235.74 2.79 2.79 7.31 4.94 9.88 4.94 7.95 0 232.09-93.91 236.38-99.07 1.93-2.58 3.65-6.66 3.65-9.24 0-6.45-92.19-229.29-97.35-235.09-2.79-3.01-6.88-4.73-10.96-4.73-3.64.21-56.5 20.84-117.32 45.99zm148.28 92.18c21.27 51.57 36.32 90.69 35.24 91.76-2.36 2.15-178.58 75.43-184.59 76.72-3.87.64-8.6-9.67-42.76-92.62-21.06-51.36-38.25-94.12-38.25-94.98 0-.86 42.55-19.13 94.34-40.62 91.33-37.82 94.12-38.9 96.49-34.6 1.28 2.59 19.11 44.92 39.53 94.34zm64.25 154.94c-114.32 47.28-209.74 88.11-212.31 90.26-2.58 2.36-4.51 6.66-4.51 9.88 0 7.74 50.5 129.37 55.23 132.59 5.59 4.3 17.19 3.44 22.13-1.5 2.58-2.58 4.3-7.09 4.3-11.39s-8.6-27.72-20.41-56.09c-11.19-26.86-20.43-50.07-20.43-51.36.21-3.44 378-159.45 380.15-157.09 2.58 3.01 78.44 187.82 77.36 188.46-.43.43-68.12 28.58-150.21 62.54-154.29 63.61-159.02 65.97-159.02 77.79 0 7.31 9.03 15.9 16.55 15.9 3.22 0 77.58-29.66 165.04-65.76 159.66-65.96 168.69-70.26 168.69-80.15 0-7.09-94.55-233.16-99.28-237.24-2.36-1.93-6.88-3.65-10.1-3.44-3.01.22-99.07 39.11-213.18 86.6z"/></g></svg>