<svg xmlns="http://www.w3.org/2000/svg" viewBox="0 0 1000 1000"><path fill="#fff" d="M858.5 184.8c3.2-3.2 5.4-7 6.9-11l41.7 41.6c6 6 13.8 9 21.7 9 7.8 0 15.7-3 21.7-9 12-12 12-31.3 0-43.3L827.9 49.6c-12-12-31.3-12-43.3 0-12 12-12 31.3 0 43.3l41.7 41.6c-4 1.5-7.8 3.7-11 6.9l-29.8 29.8c-70.9-56.4-158.8-92.1-254.8-98.5V40.6c0-16.9-13.7-30.6-30.6-30.6-16.9 0-30.6 13.7-30.6 30.6v32.2C230.3 88.7 40.6 287.6 40.6 530.6 40.6 783.9 246.7 990 500 990c253.3 0 459.4-206.1 459.4-459.4 0-123.4-49.2-235.4-128.7-318l27.8-27.8zm39.6 345.8c0 219.5-178.6 398.1-398.1 398.1-219.5 0-398.1-178.6-398.1-398.1 0-219.5 178.6-398.1 398.1-398.1 219.5 0 398.1 178.6 398.1 398.1zm-367.5-86.2v-220c0-16.9-13.7-30.6-30.6-30.6-16.9 0-30.6 13.7-30.6 30.6v220c-35.6 12.7-61.2 46.4-61.2 86.2 0 50.7 41.2 91.9 91.9 91.9s91.9-41.2 91.9-91.9c-.1-39.8-25.8-73.5-61.4-86.2zm0 116.9h-61.2V500h61.2v61.3z"/></svg>